HIERARCHY
ROOT Hips
{
    OFFSET 0.000000 0.000000 0.000000
    CHANNELS 6 Xposition Yposition Zposition Zrotation Xrotation Yrotation
    JOINT Spine
    {
        OFFSET -0.000000 8.300309 -0.000000
        CHANNELS 3 Zrotation Xrotation Yrotation
        JOINT Spine1
        {
            OFFSET 0.000000 21.724653 0.000001
            CHANNELS 3 Zrotation Xrotation Yrotation
            JOINT Neck
            {
                OFFSET 0.000000 21.947973 -0.000000
                CHANNELS 3 Zrotation Xrotation Yrotation
                JOINT Head
                {
                    OFFSET -0.000001 13.471359 1.867089
                    CHANNELS 3 Zrotation Xrotation Yrotation
                    End Site
                    {
                        OFFSET 0.000000 18.670868 0.000000
                    }
                }
            }
            JOINT LeftShoulder
            {
                OFFSET 3.727631 15.832901 -0.446436
                CHANNELS 3 Zrotation Xrotation Yrotation
                JOINT LeftArm
                {
                    OFFSET 15.415401 0.000002 0.000000
                    CHANNELS 3 Zrotation Xrotation Yrotation
                    JOINT LeftForeArm
                    {
                        OFFSET 23.524694 -0.000001 0.000000
                        CHANNELS 3 Zrotation Xrotation Yrotation
                        JOINT LeftHand
                        {
                            OFFSET 24.079298 -0.000005 0.000000
                            CHANNELS 3 Zrotation Xrotation Yrotation
                            JOINT LeftHandThumb1
                            {
                                OFFSET 1.951106 -2.217175 3.104029
                                CHANNELS 3 Zrotation Xrotation Yrotation
                                JOINT LeftHandThumb2
                                {
                                    OFFSET 2.946850 -0.000002 0.000002
                                    CHANNELS 3 Zrotation Xrotation Yrotation
                                    JOINT LeftHandThumb3
                                    {
                                        OFFSET 2.518700 0.000000 -0.000000
                                        CHANNELS 3 Zrotation Xrotation Yrotation
                                        End Site
                                        {
                                            OFFSET 2.351316 0.000000 0.000000
                                        }
                                    }
                                }
                            }
                            JOINT LeftHandIndex1
                            {
                                OFFSET 7.981797 0.000004 3.104029
                                CHANNELS 3 Zrotation Xrotation Yrotation
                                JOINT LeftHandIndex2
                                {
                                    OFFSET 4.434328 0.000005 -0.000002
                                    CHANNELS 3 Zrotation Xrotation Yrotation
                                    JOINT LeftHandIndex3
                                    {
                                        OFFSET 2.217171 -0.000003 0.000001
                                        CHANNELS 3 Zrotation Xrotation Yrotation
                                        End Site
                                        {
                                            OFFSET 2.069824 0.000000 0.000000
                                        }
                                    }
                                }
                            }
                            JOINT LeftHandMiddle1
                            {
                                OFFSET 7.981800 -0.000002 1.028760
                                CHANNELS 3 Zrotation Xrotation Yrotation
                                JOINT LeftHandMiddle2
                                {
                                    OFFSET 4.877760 -0.000002 0.000000
                                    CHANNELS 3 Zrotation Xrotation Yrotation
                                    JOINT LeftHandMiddle3
                                    {
                                        OFFSET 2.660599 -0.000002 -0.000000
                                        CHANNELS 3 Zrotation Xrotation Yrotation
                                        End Site
                                        {
                                            OFFSET 2.483785 0.000000 0.000000
                                        }
                                    }
                                }
                            }
                            JOINT LeftHandRing1
                            {
                                OFFSET 7.538355 -0.000002 -1.028760
                                CHANNELS 3 Zrotation Xrotation Yrotation
                                JOINT LeftHandRing2
                                {
                                    OFFSET 4.434327 0.000005 -0.000000
                                    CHANNELS 3 Zrotation Xrotation Yrotation
                                    JOINT LeftHandRing3
                                    {
                                        OFFSET 2.217171 -0.000002 0.000000
                                        CHANNELS 3 Zrotation Xrotation Yrotation
                                        End Site
                                        {
                                            OFFSET 2.069824 0.000000 0.000000
                                        }
                                    }
                                }
                            }
                            JOINT LeftHandPinky1
                            {
                                OFFSET 7.094929 -0.000001 -3.104030
                                CHANNELS 3 Zrotation Xrotation Yrotation
                                JOINT LeftHandPinky2
                                {
                                    OFFSET 3.547459 -0.000002 -0.000001
                                    CHANNELS 3 Zrotation Xrotation Yrotation
                                    JOINT LeftHandPinky3
                                    {
                                        OFFSET 1.773729 -0.000002 -0.000001
                                        CHANNELS 3 Zrotation Xrotation Yrotation
                                        End Site
                                        {
                                            OFFSET 1.655854 0.000000 0.000000
                                        }
                                    }
                                }
                            }
                        }
                    }
                }
            }
            JOINT RightShoulder
            {
                OFFSET -3.727631 15.832901 -0.446436
                CHANNELS 3 Zrotation Xrotation Yrotation
                JOINT RightArm
                {
                    OFFSET -15.415401 0.000005 0.000000
                    CHANNELS 3 Zrotation Xrotation Yrotation
                    JOINT RightForeArm
                    {
                        OFFSET -23.524700 0.000005 0.000000
                        CHANNELS 3 Zrotation Xrotation Yrotation
                        JOINT RightHand
                        {
                            OFFSET -24.079300 -0.000004 -0.000000
                            CHANNELS 3 Zrotation Xrotation Yrotation
                            JOINT RightHandThumb1
                            {
                                OFFSET -1.951110 -2.217168 3.104030
                                CHANNELS 3 Zrotation Xrotation Yrotation
                                JOINT RightHandThumb2
                                {
                                    OFFSET -2.946847 0.000001 0.000000
                                    CHANNELS 3 Zrotation Xrotation Yrotation
                                    JOINT RightHandThumb3
                                    {
                                        OFFSET -2.518699 -0.000003 0.000003
                                        CHANNELS 3 Zrotation Xrotation Yrotation
                                        End Site
                                        {
                                            OFFSET -2.351316 0.000000 0.000000
                                        }
                                    }
                                }
                            }
                            JOINT RightHandIndex1
                            {
                                OFFSET -7.981797 -0.000002 3.104030
                                CHANNELS 3 Zrotation Xrotation Yrotation
                                JOINT RightHandIndex2
                                {
                                    OFFSET -4.434331 0.000003 -0.000001
                                    CHANNELS 3 Zrotation Xrotation Yrotation
                                    JOINT RightHandIndex3
                                    {
                                        OFFSET -2.217168 -0.000000 0.000000
                                        CHANNELS 3 Zrotation Xrotation Yrotation
                                        End Site
                                        {
                                            OFFSET -2.069824 0.000000 0.000000
                                        }
                                    }
                                }
                            }
                            JOINT RightHandMiddle1
                            {
                                OFFSET -7.981801 -0.000004 1.028759
                                CHANNELS 3 Zrotation Xrotation Yrotation
                                JOINT RightHandMiddle2
                                {
                                    OFFSET -4.877759 -0.000006 -0.000001
                                    CHANNELS 3 Zrotation Xrotation Yrotation
                                    JOINT RightHandMiddle3
                                    {
                                        OFFSET -2.660598 -0.000005 -0.000000
                                        CHANNELS 3 Zrotation Xrotation Yrotation
                                        End Site
                                        {
                                            OFFSET -2.483785 0.000000 0.000000
                                        }
                                    }
                                }
                            }
                            JOINT RightHandRing1
                            {
                                OFFSET -7.538358 0.000003 -1.028759
                                CHANNELS 3 Zrotation Xrotation Yrotation
                                JOINT RightHandRing2
                                {
                                    OFFSET -4.434332 -0.000003 -0.000001
                                    CHANNELS 3 Zrotation Xrotation Yrotation
                                    JOINT RightHandRing3
                                    {
                                        OFFSET -2.217168 0.000004 0.000000
                                        CHANNELS 3 Zrotation Xrotation Yrotation
                                        End Site
                                        {
                                            OFFSET -2.069824 0.000000 0.000000
                                        }
                                    }
                                }
                            }
                            JOINT RightHandPinky1
                            {
                                OFFSET -7.094932 -0.000001 -3.104030
                                CHANNELS 3 Zrotation Xrotation Yrotation
                                JOINT RightHandPinky2
                                {
                                    OFFSET -3.547462 -0.000001 -0.000001
                                    CHANNELS 3 Zrotation Xrotation Yrotation
                                    JOINT RightHandPinky3
                                    {
                                        OFFSET -1.773727 -0.000004 -0.000002
                                        CHANNELS 3 Zrotation Xrotation Yrotation
                                        End Site
                                        {
                                            OFFSET -1.655854 0.000000 0.000000
                                        }
                                    }
                                }
                            }
                        }
                    }
                }
            }
        }
    }
    JOINT LeftUpLeg
    {
        OFFSET 9.335432 -0.000002 0.000000
        CHANNELS 3 Zrotation Xrotation Yrotation
        JOINT LeftLeg
        {
            OFFSET 0.000000 -40.546696 -0.000000
            CHANNELS 3 Zrotation Xrotation Yrotation
            JOINT LeftFoot
            {
                OFFSET 0.000000 -40.233597 -0.000000
                CHANNELS 3 Zrotation Xrotation Yrotation
                JOINT LeftToeBase
                {
                    OFFSET 0.000000 -6.068031 14.003201
                    CHANNELS 3 Zrotation Xrotation Yrotation
                    End Site
                    {
                        OFFSET 0.000000 0.000000 3.734173
                    }
                }
            }
        }
    }
    JOINT RightUpLeg
    {
        OFFSET -9.335431 0.000002 -0.000000
        CHANNELS 3 Zrotation Xrotation Yrotation
        JOINT RightLeg
        {
            OFFSET -0.000000 -40.546700 0.000000
            CHANNELS 3 Zrotation Xrotation Yrotation
            JOINT RightFoot
            {
                OFFSET 0.000000 -40.233604 0.000001
                CHANNELS 3 Zrotation Xrotation Yrotation
                JOINT RightToeBase
                {
                    OFFSET -0.000000 -6.068032 14.003201
                    CHANNELS 3 Zrotation Xrotation Yrotation
                    End Site
                    {
                        OFFSET 0.000000 0.000000 3.734173
                    }
                }
            }
        }
    }
}
MOTION
Frames:    4
Frame Time:    0.008333
-2.527445    90.672058    -2.485388    1.288326    -0.822917    0.616813    -0.001265    -4.195846    -0.017297    0.166571    2.474385    -0.024426    2.803598    0.020115    -1.141160    2.208185    -2.115200    -1.057369    2.012006    0.256891    0.429234    -0.699720    0.340631    0.721269    0.016313    -1.371843    0.681372    -1.227561    -0.383404    0.384972    28.697580    36.280914    -42.816933    -22.867785    -4.684819    22.867788    -0.000000    0.000000    -0.000000    -0.030085    17.999958    -0.013042    -0.028612    -0.000002    -0.000001    -0.028612    -0.000002    -0.000000    -0.028612    0.000001    -0.011169    -0.028612    0.000000    -0.000001    -0.028612    -0.000000    0.000001    -0.028612    0.000000    0.007446    -0.028612    -0.000000    0.000000    -0.028613    0.000001    -0.000001    -0.030085    -17.999950    0.005595    -0.028612    -0.000003    0.000000    -0.028612    0.000002    -0.000000    -2.488328    0.301881    -0.218298    2.958994    0.051092    1.694888    0.089767    -2.468806    2.083034    3.761636    -1.034313    -1.301292    -28.697577    36.280907    42.816929    22.867783    -4.684818    -22.867785    -0.000000    0.000000    -0.000000    0.030085    17.999950    0.013041    0.028613    0.000000    -0.000000    0.028612    0.000001    0.000001    0.028613    -0.000001    0.011169    0.028612    -0.000000    0.000000    0.028612    0.000000    0.000000    0.028613    -0.000001    -0.007446    0.028611    0.000001    -0.000000    0.028612    -0.000000    -0.000000    0.030085    -17.999954    -0.005595    0.028613    -0.000003    0.000000    0.028610    0.000004    -0.000001    1.959745    0.828995    3.321545    0.000001    7.015345    0.000001    1.491910    -3.562135    6.502545    -0.000000    -1.210558    -0.000000    -1.192056    2.624039    -1.686122    0.000000    5.736311    -0.000000    -2.782687    -2.922440    -6.270759    0.000000    -1.323377    0.000000    
-2.775179    90.661690    -2.464489    1.401834    -1.548864    0.875635    -0.017240    -5.644154    -0.175292    -0.478761    5.838493    -0.124840    3.233806    0.533983    -1.334045    1.938990    -2.376972    -1.221088    3.507712    0.919670    -0.028036    -1.754815    0.520570    0.839945    0.018314    -2.294605    0.457415    -3.546061    -0.621393    -0.757389    28.684046    36.291023    -42.838669    -22.867792    -4.684804    22.867788    -0.000000    0.000000    -0.000000    -0.060019    17.999947    -0.026100    -0.057081    -0.000001    -0.000000    -0.057081    0.000000    0.000000    -0.057081    -0.000000    -0.022324    -0.057081    -0.000000    0.000000    -0.057081    -0.000000    0.000000    -0.057081    0.000000    0.014882    -0.057081    -0.000000    -0.000000    -0.057081    0.000000    0.000000    -0.060019    -17.999950    0.011218    -0.057081    0.000006    -0.000000    -0.057081    -0.000001    -0.000000    -4.360677    0.820567    -0.443352    5.864169    0.221432    2.593975    0.256684    -4.627591    3.178313    6.526192    -2.037965    -2.621872    -28.684053    36.291027    42.838676    22.867790    -4.684811    -22.867790    -0.000000    0.000000    -0.000000    0.060019    17.999945    0.026101    0.057080    0.000000    -0.000000    0.057081    0.000001    0.000000    0.057083    -0.000002    0.022324    0.057079    0.000002    -0.000001    0.057084    -0.000001    0.000001    0.057082    -0.000001    -0.014882    0.057081    0.000001    -0.000000    0.057081    0.000000    -0.000000    0.060020    -17.999950    -0.011217    0.057079    0.000004    -0.000000    0.057082    0.000002    -0.000000    2.114224    0.066153    3.392085    -0.000000    10.357780    -0.000000    1.251363    -6.018478    8.719836    0.000001    -1.774176    -0.000001    -0.919987    2.802900    -0.396769    -0.000000    7.488063    -0.000000    -4.094464    -4.874940    -9.370376    0.000000    -1.772008    0.000001    
-2.955120    90.483704    -2.338969    1.460932    -2.221454    1.328172    -0.050956    -7.220307    -0.405421    -1.161342    9.615430    -0.202632    4.015792    0.310466    -1.377703    1.552423    -3.461572    -1.256932    5.952745    1.499712    -0.774243    -3.427189    0.586688    1.348730    0.045596    -3.927966    0.665581    -6.696795    -1.026533    -2.139372    28.659761    36.309235    -42.877754    -22.867786    -4.684808    22.867786    -0.000000    0.000000    -0.000000    -0.113632    17.999922    -0.049637    -0.108069    -0.000001    0.000000    -0.108070    0.000001    0.000000    -0.108070    -0.000000    -0.042376    -0.108069    0.000000    0.000000    -0.108070    0.000000    0.000000    -0.108070    0.000000    0.028250    -0.108070    -0.000001    -0.000000    -0.108070    0.000000    0.000000    -0.113631    -17.999924    0.021387    -0.108070    0.000000    0.000000    -0.108070    0.000000    0.000000    -7.570322    1.171777    -0.878840    10.172797    0.589754    3.553000    0.581175    -8.040829    4.147730    9.594037    -3.813058    -5.134531    -28.659765    36.309246    42.877766    22.867788    -4.684808    -22.867792    -0.000000    0.000000    -0.000000    0.113631    17.999929    0.049637    0.108069    -0.000001    -0.000000    0.108070    0.000000    0.000000    0.108071    -0.000002    0.042376    0.108066    0.000002    -0.000000    0.108071    -0.000002    0.000000    0.108070    -0.000000    -0.028250    0.108069    0.000001    -0.000000    0.108073    -0.000002    0.000000    0.113630    -17.999926    -0.021387    0.108071    0.000000    -0.000000    0.108071    -0.000003    0.000000    2.224760    -0.951603    3.242565    0.000000    14.269174    0.000001    0.251633    -9.188467    10.256713    0.000000    -2.445711    0.000002    -0.485374    2.969653    1.733201    0.000000    9.234012    0.000001    -5.788088    -6.850142    -13.255504    0.000000    -2.148956    0.000001    
-3.100602    90.307320    -2.279775    1.448637    -2.512195    1.873917    -0.093266    -8.383000    -0.639705    -1.542938    12.273979    -0.290563    4.775122    -0.238100    -1.283655    0.994171    -4.880448    -1.209960    8.597872    1.525517    -1.669251    -5.606903    0.483731    2.070523    0.123182    -5.876219    1.203013    -9.650764    -1.482268    -3.414830    28.626963    36.333946    -42.930698    -22.867786    -4.684809    22.867783    -0.000000    0.000000    -0.000000    -0.185825    17.999868    -0.081598    -0.176730    -0.000001    0.000000    -0.176730    0.000001    -0.000000    -0.176730    -0.000000    -0.069510    -0.176730    -0.000000    -0.000000    -0.176730    0.000000    0.000000    -0.176729    0.000001    0.046340    -0.176730    -0.000001    -0.000000    -0.176730    0.000001    0.000000    -0.185825    -17.999868    0.035258    -0.176729    0.000000    0.000000    -0.176731    -0.000003    -0.000000    -11.335903    0.984227    -1.440317    14.908545    1.141341    4.338387    0.960847    -11.759448    4.704427    11.306119    -5.911928    -8.126238    -28.626959    36.333935    42.930691    22.867792    -4.684804    -22.867785    -0.000000    0.000000    -0.000000    0.185822    17.999866    0.081599    0.176728    -0.000000    -0.000000    0.176731    0.000001    0.000000    0.176727    -0.000001    0.069511    0.176727    0.000000    0.000000    0.176732    -0.000001    -0.000000    0.176727    0.000001    -0.046340    0.176729    0.000000    -0.000000    0.176729    0.000000    0.000000    0.185822    -17.999866    -0.035258    0.176731    0.000002    -0.000000    0.176726    -0.000002    0.000001    2.466599    -1.921573    3.102541    -0.000000    17.109472    -0.000000    -1.531274    -11.781248    10.375957    0.000000    -2.938310    0.000000    -0.046924    3.084903    3.877825    -0.000000    10.124524    -0.000001    -7.065461    -7.977185    -16.643353    0.000001    -2.227089    0.000001    
